<?xml version="1.0" encoding="UTF-8"?>
<svg width="24" height="24" viewBox="0 0 24 24" fill="none" xmlns="http://www.w3.org/2000/svg">
  <path d="M22 16.92V19.92C22 20.4704 21.7893 20.9987 21.4142 21.3738C21.0391 21.7489 20.5109 21.9596 19.96 21.96C16.4189 21.96 12.9882 20.8385 10.0399 18.7799C7.2952 16.903 5.00703 14.6148 3.13005 11.8701C1.06 8.91061 -0.0600012 5.46772 -0.0600012 1.91401C-0.0604272 1.36496 0.148852 0.838304 0.521595 0.463483C0.894338 0.0886625 1.41944 -0.123101 1.97005 -0.124012H4.97005C5.99005 -0.124012 6.87005 0.616988 7.00005 1.62399C7.11005 2.52399 7.35005 3.39999 7.71005 4.22399C7.89005 4.63999 7.81005 5.11999 7.51005 5.41999L6.00005 6.92999C7.72005 9.73999 9.98005 12 12.79 13.72L14.3 12.21C14.6 11.91 15.08 11.83 15.5 12.01C16.3201 12.37 17.1961 12.61 18.1 12.72C19.12 12.85 19.87 13.74 19.87 14.77V16.92H22Z" stroke="currentColor" stroke-width="2" stroke-linecap="round" stroke-linejoin="round"/>
</svg>
